<?xml version="1.0" standalone="no"?>
<!DOCTYPE svg PUBLIC "-//W3C//DTD SVG 20010904//EN"
 "http://www.w3.org/TR/2001/REC-SVG-20010904/DTD/svg10.dtd">
<svg version="1.0" xmlns="http://www.w3.org/2000/svg"
 width="192.000000pt" height="192.000000pt" viewBox="0 0 192.000000 192.000000"
 preserveAspectRatio="xMidYMid meet">
<metadata>
Created by potrace 1.14, written by Peter Selinger 2001-2017
</metadata>
<g transform="translate(0.000000,192.000000) scale(0.100000,-0.100000)"
fill="#000000" stroke="none">
<path d="M381 1803 c-1 -6 -12 -10 -26 -9 -13 2 -23 -2 -22 -7 1 -6 -2 -12 -8
-12 -23 -3 -45 -18 -39 -26 3 -5 -1 -9 -10 -9 -9 0 -13 -8 -12 -25 2 -14 -3
-30 -10 -36 -8 -6 -11 -15 -8 -20 3 -5 0 -9 -6 -9 -7 0 -8 -6 -1 -18 6 -11 6
-24 0 -34 -6 -11 -5 -19 1 -23 8 -5 8 -11 0 -20 -8 -10 -8 -15 0 -20 8 -5 8
-11 -1 -21 -9 -11 -9 -14 1 -14 9 0 10 -3 1 -13 -6 -8 -8 -17 -4 -21 10 -10
11 -46 1 -46 -5 0 -4 -9 2 -20 6 -11 7 -20 2 -20 -10 0 -9 -30 1 -47 4 -6 3
-15 -3 -18 -8 -5 -7 -11 1 -21 9 -11 9 -14 -1 -14 -10 0 -10 -3 -1 -14 8 -10
9 -16 1 -21 -6 -3 -7 -12 -3 -18 10 -17 11 -47 1 -47 -5 0 -4 -9 2 -20 6 -11
7 -20 2 -20 -10 0 -9 -36 1 -46 4 -4 2 -13 -4 -20 -7 -8 -7 -14 1 -19 8 -5 8
-11 -1 -21 -9 -11 -9 -14 1 -14 10 0 10 -3 1 -14 -8 -10 -9 -16 -1 -21 7 -4 7
-12 0 -25 -7 -13 -7 -21 0 -25 8 -5 7 -11 -1 -21 -9 -11 -9 -14 1 -14 9 0 10
-3 1 -13 -8 -10 -7 -17 1 -25 9 -9 9 -12 0 -12 -9 0 -10 -5 -3 -18 6 -11 6
-24 0 -34 -6 -11 -5 -19 1 -23 8 -5 7 -11 -1 -21 -9 -11 -9 -14 1 -14 9 0 10
-3 1 -13 -8 -10 -7 -17 1 -25 9 -9 9 -12 0 -12 -9 0 -10 -5 -3 -18 6 -11 6
-24 0 -34 -6 -11 -5 -19 1 -23 8 -5 8 -11 0 -20 -8 -10 -8 -15 0 -20 8 -5 8
-11 -1 -21 -9 -11 -9 -14 1 -14 9 0 10 -3 1 -13 -6 -8 -8 -17 -4 -21 10 -10
11 -46 1 -46 -5 0 -4 -9 2 -20 6 -11 7 -20 2 -20 -5 0 -9 -7 -9 -15 0 -8 4
-15 9 -15 5 0 4 -8 -1 -18 -7 -13 -6 -23 1 -30 7 -7 8 -12 4 -12 -5 0 -3 -7 4
-15 7 -8 9 -15 6 -15 -4 0 -2 -9 4 -20 6 -11 15 -18 21 -15 5 4 8 2 7 -4 -2
-5 6 -17 17 -26 11 -9 13 -13 5 -9 -8 4 -11 3 -7 -2 4 -4 20 -9 35 -10 14 0
28 -6 30 -12 2 -7 13 -7 32 -2 18 5 32 5 36 -1 4 -7 10 -7 18 0 8 7 15 2 23
-15 7 -16 8 -24 1 -24 -6 0 -5 -6 2 -15 10 -12 10 -15 0 -15 -9 0 -10 -3 -1
-13 6 -8 8 -17 5 -20 -4 -3 4 -5 16 -4 12 1 26 10 31 19 6 10 14 16 20 13 5
-4 9 -1 9 4 0 6 6 11 14 11 8 0 17 7 20 16 3 8 10 13 15 10 5 -3 12 1 15 10 3
8 10 12 16 9 5 -3 10 -2 10 4 0 13 30 2 54 -21 11 -10 26 -18 33 -18 7 0 18
-9 25 -20 7 -11 21 -20 30 -20 10 0 18 -5 18 -10 0 -7 6 -7 19 0 16 8 20 26
11 50 -13 32 6 66 26 49 11 -9 14 -9 14 0 0 8 5 9 19 1 14 -7 22 -7 26 0 5 8
11 8 20 0 10 -8 19 -8 35 0 14 8 25 8 33 1 8 -6 18 -6 27 -1 9 5 19 5 27 -1 8
-7 18 -7 32 1 15 7 21 7 21 0 0 -7 6 -7 21 0 14 8 24 8 32 1 8 -6 18 -6 27 -1
9 5 19 5 27 -1 8 -7 18 -7 32 1 15 7 21 7 21 0 0 -7 6 -7 21 0 14 8 24 8 32 1
8 -6 18 -6 27 -1 9 5 19 5 27 -1 8 -7 18 -7 32 1 15 7 21 7 21 0 0 -7 6 -8 18
-2 15 8 34 8 47 2 23 -11 145 34 131 48 -3 3 2 10 11 17 15 11 20 25 25 67 1
10 6 18 11 18 5 0 4 7 -3 15 -7 8 -8 15 -3 15 11 0 11 29 0 47 -4 6 -3 15 3
18 8 5 7 11 -1 21 -9 11 -9 14 1 14 10 0 10 3 1 14 -8 10 -9 16 -1 21 6 3 7
12 3 18 -10 17 -11 47 -1 47 5 0 4 9 -2 20 -6 11 -7 20 -2 20 10 0 9 36 -1 46
-4 4 -2 13 4 20 7 8 7 14 -1 19 -8 5 -8 11 1 21 9 11 9 14 -1 14 -9 0 -10 3
-1 13 6 8 8 17 4 21 -10 10 -11 46 -1 46 5 0 4 9 -2 20 -6 11 -7 20 -2 20 10
0 9 30 -1 47 -4 6 -3 15 3 18 8 5 7 11 -1 21 -9 11 -9 14 1 14 10 0 10 3 1 14
-8 10 -9 16 -1 21 6 3 7 12 3 18 -10 17 -11 47 -1 47 5 0 4 9 -2 20 -6 11 -7
20 -2 20 10 0 9 36 -1 46 -4 4 -2 13 4 20 7 8 7 14 -1 19 -8 5 -8 11 1 21 9
11 9 14 -1 14 -10 0 -10 3 -1 14 8 10 9 16 1 21 -7 4 -7 12 0 25 7 13 7 21 0
25 -8 5 -8 11 0 20 8 10 8 15 0 20 -8 5 -8 11 1 21 9 11 9 14 -1 14 -9 0 -10
3 -1 13 6 8 8 17 4 21 -10 10 -11 46 -1 46 5 0 4 9 -2 20 -6 11 -7 20 -2 20
10 0 9 30 -1 47 -4 6 -3 14 3 18 6 4 7 12 3 18 -11 18 -11 47 0 47 5 0 4 7 -3
15 -6 8 -9 19 -5 25 4 6 2 17 -4 24 -7 8 -10 20 -9 27 2 8 -3 13 -10 11 -7 -1
-17 9 -22 24 -6 14 -15 22 -21 19 -6 -4 -17 1 -25 11 -9 11 -12 12 -8 4 5 -12
4 -12 -6 -3 -7 6 -19 9 -26 6 -8 -3 -14 1 -14 8 0 12 -2 12 -9 0 -6 -9 -10
-10 -16 -2 -5 9 -10 9 -20 1 -9 -8 -15 -8 -20 0 -4 6 -12 7 -24 1 -9 -5 -23
-6 -31 -1 -7 4 -23 5 -35 0 -12 -5 -28 -5 -35 0 -7 5 -24 4 -38 -1 -13 -5 -29
-6 -35 -2 -16 10 -47 11 -47 3 0 -8 -49 -5 -57 4 -3 2 -16 1 -29 -4 -16 -6
-24 -6 -24 1 0 6 -7 6 -19 -1 -14 -7 -22 -7 -26 0 -5 8 -11 7 -21 -1 -11 -9
-14 -9 -14 0 0 8 -5 9 -19 1 -13 -7 -22 -7 -26 0 -4 6 -13 7 -24 1 -9 -5 -23
-6 -31 -1 -7 4 -23 5 -35 0 -12 -5 -28 -5 -35 0 -7 5 -24 4 -38 -1 -13 -5 -29
-6 -35 -2 -16 10 -47 11 -47 3 0 -8 -49 -5 -57 4 -3 2 -16 1 -29 -4 -16 -6
-24 -6 -24 1 0 6 -7 6 -19 -1 -14 -7 -22 -7 -26 0 -5 8 -11 7 -21 -1 -11 -9
-14 -9 -14 0 0 8 -5 9 -19 1 -13 -7 -22 -7 -26 0 -4 6 -13 7 -24 1 -9 -5 -23
-6 -31 -1 -7 4 -24 4 -36 0 -15 -6 -24 -5 -28 3 -3 9 -5 9 -5 0z"/>
<path d="M240 1689 c0 -5 5 -7 10 -4 6 3 10 8 10 11 0 2 -4 4 -10 4 -5 0 -10
-5 -10 -11z"/>
</g>
</svg>
